<?xml version="1.0" encoding="UTF-8"?>
<svg width="64px" height="64px" viewBox="0 0 64 64" version="1.1" xmlns="http://www.w3.org/2000/svg" xmlns:xlink="http://www.w3.org/1999/xlink">
    <title>Icons / Large / Allergen-Eggs</title>
    <desc>Created with Sketch.</desc>
    <defs>
        <polygon id="path-1" points="0 0.0004 58.6273819 0.0004 58.6273819 46.401 0 46.401"></polygon>
    </defs>
    <g id="Icons-/-Large-/-Allergen-Eggs" stroke="none" stroke-width="1" fill="none" fill-rule="evenodd">
        <rect id="Rectangle-2" x="0" y="0" width="64" height="64"></rect>
        <g id="Group-3" transform="translate(3.000000, 9.000000)">
            <mask id="mask-2" fill="white">
                <use xlink:href="#path-1"></use>
            </mask>
            <g id="Clip-2"></g>
            <path d="M52.8537,40.875 C50.1207,43.639 46.1917,45.04 41.1767,45.04 C36.9747,45.04 33.8277,44.194 31.3397,42.414 C40.4527,37.62 47.2127,29.511 45.9997,23.339 C44.9497,17.992 37.8047,13.563 29.2497,11.832 C32.5677,5.447 37.1877,1.361 41.1767,1.361 C48.7027,1.361 57.1227,15.29 57.2647,27.976 C57.2987,31.093 56.7717,36.914 52.8537,40.875 M21.6537,44.52 C18.6017,45.154 12.7887,45.761 8.1457,42.682 C4.9067,40.532 2.7737,36.947 1.8057,32.025 L1.8057,32.026 C0.8387,27.104 1.4567,22.979 3.6417,19.764 C6.7737,15.156 12.3827,13.517 15.4487,12.95 C27.9177,10.643 43.2117,16.217 44.6647,23.603 C46.1157,30.987 34.0727,41.935 21.6537,44.52 M41.1767,0 C36.5337,0 31.4587,4.427 27.8507,11.575 C23.7287,10.896 19.3447,10.843 15.2007,11.61 C11.9267,12.216 5.9247,13.98 2.5147,18.997 C0.1187,22.524 -0.5703,26.996 0.4697,32.288 L0.4697,32.289 C1.5097,37.58 3.8387,41.459 7.3927,43.816 C10.4047,45.814 13.8307,46.396 16.7967,46.396 C18.8107,46.396 20.6137,46.128 21.9307,45.854 C24.6927,45.278 27.4117,44.32 29.9757,43.097 C32.7917,45.345 36.3557,46.401 41.1767,46.401 C46.5697,46.401 50.8247,44.864 53.8227,41.833 C58.0877,37.52 58.6637,31.29 58.6257,27.96 C58.4737,14.372 49.5047,0 41.1767,0" id="Fill-1" fill="#212529" mask="url(#mask-2)"></path>
        </g>
    </g>
</svg>