<?xml version="1.0" encoding="UTF-8"?>
<svg width="64px" height="64px" viewBox="0 0 64 64" version="1.1" xmlns="http://www.w3.org/2000/svg" xmlns:xlink="http://www.w3.org/1999/xlink">
    <title>Icons / Large / Allergen-Dairy</title>
    <desc>Created with Sketch.</desc>
    <defs>
        <polygon id="path-1" points="0.0002 0.346441467 57.375 0.346441467 57.375 62.9996 0.0002 62.9996"></polygon>
    </defs>
    <g id="Icons-/-Large-/-Allergen-Dairy" stroke="none" stroke-width="1" fill="none" fill-rule="evenodd">
        <rect id="Rectangle-2" x="0" y="0" width="64" height="64"></rect>
        <g id="Group-10" transform="translate(3.000000, 0.000000)">
            <path d="M47.0327,48.6381 C47.0327,49.3861 46.4247,49.9941 45.6767,49.9941 C44.9287,49.9941 44.3207,49.3861 44.3207,48.6381 C44.3207,47.8901 44.9287,47.2811 45.6767,47.2811 C46.4247,47.2811 47.0327,47.8901 47.0327,48.6381 M42.9577,48.6381 C42.9577,50.1371 44.1777,51.3561 45.6767,51.3561 C47.1757,51.3561 48.3947,50.1371 48.3947,48.6381 C48.3947,47.1391 47.1757,45.9191 45.6767,45.9191 C44.1777,45.9191 42.9577,47.1391 42.9577,48.6381" id="Fill-1" fill="#FEFEFE"></path>
            <path d="M38.2739,57.5971 C37.0359,57.5971 36.0279,56.5891 36.0279,55.3511 C36.0279,54.1131 37.0359,53.1051 38.2739,53.1051 C39.5119,53.1051 40.5199,54.1131 40.5199,55.3511 C40.5199,56.5891 39.5119,57.5971 38.2739,57.5971 M38.2739,51.7431 C36.2839,51.7431 34.6659,53.3621 34.6659,55.3511 C34.6659,57.3401 36.2839,58.9581 38.2739,58.9581 C40.2629,58.9581 41.8819,57.3401 41.8819,55.3511 C41.8819,53.3621 40.2629,51.7431 38.2739,51.7431" id="Fill-3" fill="#FEFEFE"></path>
            <path d="M29.5513,50.9408 C28.6933,50.9408 27.9943,50.2418 27.9943,49.3828 C27.9943,48.5248 28.6933,47.8268 29.5513,47.8268 C30.4093,47.8268 31.1083,48.5248 31.1083,49.3828 C31.1083,50.2418 30.4093,50.9408 29.5513,50.9408 M29.5513,46.4648 C27.9413,46.4648 26.6323,47.7738 26.6323,49.3828 C26.6323,50.9928 27.9413,52.3018 29.5513,52.3018 C31.1603,52.3018 32.4703,50.9928 32.4703,49.3828 C32.4703,47.7738 31.1603,46.4648 29.5513,46.4648" id="Fill-5" fill="#FEFEFE"></path>
            <g id="Group-9" transform="translate(0.000000, 0.653700)">
                <mask id="mask-2" fill="white">
                    <use xlink:href="#path-1"></use>
                </mask>
                <g id="Clip-8"></g>
                <path d="M56.0132,60.6426 C55.5852,60.6716 54.8782,60.6776 53.8472,60.5636 C53.8182,60.5606 50.8722,60.2146 48.6382,60.1006 C48.4862,60.0926 48.3182,60.0896 48.1362,60.0896 C47.0912,60.0896 45.5782,60.2076 43.9902,60.3326 C41.6872,60.5126 39.0752,60.7156 37.7202,60.5636 C37.0922,60.4926 36.5132,60.4036 35.9492,60.3176 C34.2192,60.0536 32.5862,59.8036 30.1042,60.0936 C29.3172,60.1856 28.6382,60.2706 28.0442,60.3456 C26.4932,60.5396 25.5572,60.6556 24.8252,60.6196 C24.1202,60.5806 23.0602,60.5676 22.3702,60.5616 L22.3702,43.5266 C23.7532,43.6836 26.6302,43.9966 27.8182,44.0166 C29.1642,44.0526 31.1992,43.8746 33.1692,43.7156 C34.8302,43.5816 36.3982,43.4556 37.4782,43.4426 C38.7282,43.4286 40.6552,43.5256 42.5242,43.6186 C44.2622,43.7056 45.9042,43.7876 47.0542,43.7876 C49.0322,43.7876 54.1202,43.5626 56.0132,43.4756 L56.0132,60.6426 Z M1.3622,57.5916 L1.3622,49.8026 L17.8502,53.1586 L17.8502,61.4586 L1.3622,57.5916 Z M8.5022,7.3096 L23.4972,10.1346 L18.1612,20.1766 L1.8262,17.3576 L8.5022,7.3096 Z M23.8522,4.7496 L23.8522,8.8156 L8.8662,5.9926 L8.8662,1.8526 L23.8522,4.7496 Z M1.3622,35.9816 L17.8502,39.3366 L17.8502,51.7696 L1.3622,48.4136 L1.3622,35.9816 Z M24.6212,10.9226 L29.3222,17.4406 L19.8592,19.8856 L24.6212,10.9226 Z M17.8502,21.5046 L17.8502,37.9486 L1.3622,34.5926 L1.3622,18.6596 L17.8502,21.5046 Z M21.1572,42.3366 C21.1362,42.3626 21.1302,42.3926 21.1142,42.4196 C21.0932,42.4556 21.0732,42.4896 21.0582,42.5286 C21.0392,42.5806 21.0312,42.6316 21.0252,42.6846 C21.0212,42.7106 21.0082,42.7356 21.0082,42.7616 L21.0082,60.7816 L19.2122,61.3756 L19.2122,21.4586 L29.7762,18.7296 L29.7762,34.7766 C24.5852,38.0866 21.3102,42.1456 21.1572,42.3366 Z M32.2012,34.9136 C33.0852,35.2046 35.8212,36.1116 36.7932,36.5236 C37.3632,36.7656 38.1652,37.1606 39.0142,37.5796 C40.2262,38.1756 41.4802,38.7936 42.3452,39.1086 C43.5262,39.5376 45.4032,39.9956 47.2202,40.4386 C48.3212,40.7066 49.3582,40.9596 50.0952,41.1746 C50.7722,41.3716 52.0202,41.8026 53.2332,42.2336 C51.0242,42.3256 48.3372,42.4256 47.0542,42.4256 C45.9382,42.4246 44.3132,42.3436 42.5922,42.2576 C40.7022,42.1636 38.7482,42.0526 37.4622,42.0806 C36.3352,42.0936 34.7442,42.2226 33.0602,42.3586 C31.1212,42.5146 29.1102,42.6766 27.8412,42.6556 C26.8522,42.6386 24.5242,42.3956 23.0552,42.2316 C24.5172,40.6306 27.8182,37.3346 32.2012,34.9136 Z M57.3722,42.7466 C57.3712,42.6896 57.3542,42.6366 57.3392,42.5826 C57.3292,42.5496 57.3282,42.5166 57.3152,42.4856 C57.2882,42.4256 57.2462,42.3736 57.2032,42.3246 C57.1882,42.3066 57.1812,42.2846 57.1642,42.2686 C57.1632,42.2676 57.1622,42.2676 57.1622,42.2666 C57.0972,42.2056 57.0192,42.1556 56.9302,42.1226 C56.7342,42.0506 52.1102,40.3436 50.4762,39.8666 C49.7242,39.6476 48.6662,39.3886 47.5422,39.1156 C45.8452,38.7006 43.9212,38.2306 42.8102,37.8276 C42.0152,37.5386 40.7952,36.9376 39.6162,36.3566 C38.7492,35.9296 37.9302,35.5266 37.3242,35.2696 C36.1112,34.7546 32.4982,33.5766 32.3452,33.5266 C32.1672,33.4686 31.9742,33.4866 31.8102,33.5746 C31.5812,33.6986 31.3622,33.8286 31.1382,33.9556 L31.1382,17.8506 C31.1382,17.8096 31.1272,17.7706 31.1192,17.7316 C31.1172,17.7136 31.1212,17.6986 31.1172,17.6806 C31.1162,17.6746 31.1112,17.6706 31.1092,17.6646 C31.0882,17.5886 31.0562,17.5166 31.0102,17.4526 L25.2152,9.4166 L25.2152,4.1876 C25.2152,3.8616 24.9832,3.5806 24.6632,3.5186 L8.3142,0.3586 C8.1142,0.3206 7.9082,0.3726 7.7512,0.5016 C7.5942,0.6316 7.5032,0.8246 7.5032,1.0276 L7.5032,6.3506 L0.1142,17.4736 C0.1122,17.4756 0.1122,17.4796 0.1102,17.4816 C0.1082,17.4856 0.1072,17.4896 0.1052,17.4936 C0.0642,17.5576 0.0382,17.6296 0.0212,17.7046 C0.0192,17.7146 0.0122,17.7236 0.0102,17.7346 C0.0072,17.7486 0.0132,17.7616 0.0112,17.7766 C0.0082,17.8016 0.0002,17.8256 0.0002,17.8506 L0.0002,58.1316 C0.0002,58.4486 0.2182,58.7226 0.5252,58.7946 L18.3752,62.9816 C18.4202,62.9916 18.4652,62.9956 18.5092,62.9966 C18.5172,62.9966 18.5242,62.9996 18.5312,62.9996 C18.6022,62.9996 18.6742,62.9886 18.7452,62.9646 L21.8962,61.9206 C22.4212,61.9226 23.8862,61.9326 24.7512,61.9786 C25.6032,62.0226 26.5862,61.9016 28.2142,61.6976 C28.8042,61.6226 29.4792,61.5386 30.2612,61.4476 C32.5632,61.1776 34.0372,61.4046 35.7432,61.6636 C36.3252,61.7526 36.9192,61.8436 37.5662,61.9166 C39.0552,62.0876 41.6172,61.8846 44.0962,61.6906 C45.9162,61.5476 47.6352,61.4146 48.5682,61.4616 C50.7582,61.5736 53.6592,61.9136 53.6922,61.9166 C54.4062,61.9966 54.9862,62.0236 55.4462,62.0236 C56.3622,62.0236 56.8032,61.9156 56.8692,61.8986 C57.1682,61.8196 57.3752,61.5486 57.3752,61.2406 L57.3752,42.7616 C57.3752,42.7566 57.3722,42.7516 57.3722,42.7466 Z" id="Fill-7" fill="#212529" mask="url(#mask-2)"></path>
            </g>
        </g>
    </g>
</svg>