<?xml version="1.0" encoding="UTF-8"?>
<svg width="64px" height="64px" viewBox="0 0 64 64" version="1.1" xmlns="http://www.w3.org/2000/svg" xmlns:xlink="http://www.w3.org/1999/xlink">
    <title>Icons / Large / Allergen-Wheat</title>
    <desc>Created with Sketch.</desc>
    <g id="Icons-/-Large-/-Allergen-Wheat" stroke="none" stroke-width="1" fill="none" fill-rule="evenodd">
        <rect id="Rectangle-2" x="0" y="0" width="64" height="64"></rect>
        <g id="Group-5" transform="translate(19.000000, 4.000000)" stroke="#212529" stroke-linecap="round" stroke-linejoin="round" stroke-width="1.362">
            <path d="M7,1 L7,8.504" id="Stroke-1"></path>
            <path d="M3,4 L3,12.979" id="Stroke-3"></path>
            <g id="Group-4">
                <g id="Group-36">
                    <path d="M10.7332,24.7196 C10.7332,24.7196 11.2222,19.3426 9.7552,17.5966 C8.2892,15.8516 2.9822,13.6156 2.9822,13.6156 C2.9822,13.6156 2.5892,19.5206 5.0772,21.3676 C7.7332,23.3396 10.7332,24.7196 10.7332,24.7196 Z" id="Stroke-4"></path>
                    <path d="M12.1317,36.866 C12.1317,36.866 11.7497,31.48 10.0227,29.993 C8.2937,28.506 2.6967,27.153 2.6967,27.153 C2.6967,27.153 3.2577,33.044 6.0107,34.467 C8.9487,35.986 12.1317,36.866 12.1317,36.866 Z" id="Stroke-6"></path>
                    <path d="M0.6815,25.1278 L2.9615,27.4078" id="Stroke-8"></path>
                    <path d="M12.1317,48.1395 C12.1317,48.1395 11.7497,42.7535 10.0227,41.2665 C8.2937,39.7795 2.6967,38.4265 2.6967,38.4265 C2.6967,38.4265 3.2577,44.3175 6.0107,45.7405 C8.9487,47.2595 12.1317,48.1395 12.1317,48.1395 Z" id="Stroke-10"></path>
                    <path d="M0.6815,36.4012 L2.9615,38.6812" id="Stroke-12"></path>
                    <path d="M19.5799,1.7645 L19.5799,9.2685" id="Stroke-14"></path>
                    <path d="M23.532,4.6375 L23.532,13.6165" id="Stroke-16"></path>
                    <path d="M15.7801,24.7196 C15.7801,24.7196 15.2921,19.3426 16.7591,17.5966 C18.2241,15.8516 23.5321,13.6156 23.5321,13.6156 C23.5321,13.6156 23.9251,19.5206 21.4361,21.3676 C18.7801,23.3396 15.7801,24.7196 15.7801,24.7196 Z" id="Stroke-18"></path>
                    <path d="M14.3817,36.866 C14.3817,36.866 14.7647,31.48 16.4917,29.993 C18.2197,28.506 23.8177,27.153 23.8177,27.153 C23.8177,27.153 23.2557,33.044 20.5037,34.467 C17.5647,35.986 14.3817,36.866 14.3817,36.866 Z" id="Stroke-20"></path>
                    <path d="M25.8328,25.1278 L23.5528,27.4078" id="Stroke-22"></path>
                    <path d="M14.3817,48.1395 C14.3817,48.1395 14.7647,42.7535 16.4917,41.2665 C18.2197,39.7795 23.8177,38.4265 23.8177,38.4265 C23.8177,38.4265 23.2557,44.3175 20.5037,45.7405 C17.5647,47.2595 14.3817,48.1395 14.3817,48.1395 Z" id="Stroke-24"></path>
                    <path d="M25.8328,36.4012 L23.5528,38.6812" id="Stroke-26"></path>
                    <path d="M13.2,0.6981 L13.2,4.6371" id="Stroke-28"></path>
                    <path d="M13.2,17.827 C13.2,17.827 16.282,13.809 16.282,11.193 C16.282,8.25 13.2,4.638 13.2,4.638 C13.2,4.638 10.232,8.982 10.232,11.232 C10.232,13.482 13.2,17.827 13.2,17.827 Z" id="Stroke-30"></path>
                    <path d="M11.1727,51.1688 L15.3407,51.1688" id="Stroke-32"></path>
                    <path d="M13.2567,56.3192 L13.2567,51.1692" id="Stroke-34"></path>
                </g>
            </g>
        </g>
    </g>
</svg>