<svg height="64" viewBox="0 0 64 64" width="64" xmlns="http://www.w3.org/2000/svg"><path d="m42.1865 31.2051c-.488-.488-1.279-.488-1.768 0l-6.983 6.983v-23.938c0-.691-.56-1.25-1.25-1.25s-1.25.559-1.25 1.25v23.938l-6.983-6.983c-.489-.488-1.28-.488-1.768 0s-.488 1.279 0 1.768l9.117 9.117c.244.244.564.366.884.366s.64-.122.884-.366l9.117-9.117c.488-.489.488-1.28 0-1.768m5.0899 19.8086h-29.752c-3.046 0-5.524-2.048-5.524-4.565v-4.507c0-.691.559-1.25 1.25-1.25.69 0 1.25.559 1.25 1.25v4.507c0 1.119 1.384 2.065 3.024 2.065h29.752c1.64 0 3.024-.946 3.024-2.065v-4.507c0-.691.56-1.25 1.25-1.25.691 0 1.25.559 1.25 1.25v4.507c0 2.517-2.478 4.565-5.524 4.565" fill="#ffdd00" fill-rule="evenodd"/></svg>