<svg height="16" viewBox="0 0 16 16" width="16" xmlns="http://www.w3.org/2000/svg"><path d="m5.76256313 7-5.50628156-5.50628157c-.34170876-.34170875-.34170876-.89572811 0-1.23743686.34170875-.34170876.89572811-.34170876 1.23743686 0l5.50628157 5.50628156 5.5062816-5.50628156c.3417087-.34170876.8957281-.34170876 1.2374368 0 .3417088.34170875.3417088.89572811 0 1.23743686l-5.50628153 5.50628157 5.50628153 5.5062816c.3417088.3417087.3417088.8957281 0 1.2374368-.3417087.3417088-.8957281.3417088-1.2374368 0l-5.5062816-5.50628153-5.50628157 5.50628153c-.34170875.3417088-.89572811.3417088-1.23743686 0-.34170876-.3417087-.34170876-.8957281 0-1.2374368z" fill="#ffffff" fill-rule="evenodd" transform="translate(1 1)"/></svg>