<svg xmlns:inkscape="http://www.inkscape.org/namespaces/inkscape" xmlns:sodipodi="http://sodipodi.sourceforge.net/DTD/sodipodi-0.dtd" xmlns="http://www.w3.org/2000/svg" xmlns:svg="http://www.w3.org/2000/svg" width="16" height="16" fill="currentColor" focusable="false" version="1.1" id="svg4" sodipodi:docname="2619989a68203f501a3885aa4033f241.svg">
  <defs id="defs8" fill="#ffffff"/>
  <sodipodi:namedview id="namedview6" pagecolor="#ffffff" bordercolor="#666666" borderopacity="1.0" inkscape:pageshadow="2" inkscape:pageopacity="0.0" inkscape:pagecheckerboard="0" fill="#ffffff"/>
  <path fill-rule="evenodd" clip-rule="evenodd" d="M 16,8 A 8,8 0 1 0 0,8 8,8 0 0 0 16,8 Z M 4.517,8.8 c 0.09,2.045 0.515,3.863 1.149,5.161 A 6.407,6.407 0 0 1 1.65,8.8 Z m 1.602,0 c 0.081,1.703 0.416,3.174 0.872,4.215 0.264,0.604 0.537,0.992 0.759,1.206 C 7.887,14.354 7.97,14.39 8,14.399 8.03,14.389 8.113,14.354 8.25,14.221 8.472,14.007 8.745,13.619 9.01,13.015 9.465,11.974 9.8,10.503 9.881,8.8 H 6.12 Z M 9.881,7.2 H 6.12 C 6.201,5.497 6.536,4.026 6.992,2.984 7.256,2.381 7.529,1.994 7.751,1.779 7.888,1.646 7.971,1.61 8.001,1.601 c 0.03,0.01 0.113,0.045 0.25,0.178 0.222,0.215 0.495,0.602 0.76,1.205 0.455,1.042 0.79,2.513 0.871,4.216 z m 1.602,1.6 c -0.089,2.045 -0.515,3.863 -1.149,5.161 A 6.407,6.407 0 0 0 14.351,8.8 Z M 14.351,7.2 H 11.483 C 11.394,5.155 10.968,3.337 10.334,2.04 a 6.407,6.407 0 0 1 4.017,5.16 z m -9.834,0 H 1.65 A 6.407,6.407 0 0 1 5.666,2.04 C 5.032,3.337 4.606,5.155 4.517,7.2 Z" id="path2" fill="#ffffff"/>
</svg>