<svg height="64" viewBox="0 0 64 64" width="64" xmlns="http://www.w3.org/2000/svg"><path d="m11.5928983 7.87636351c-3.15382798 0-5.71926174 2.57344149-5.71926174 5.73667559 0 3.1636722 2.56543376 5.7371137 5.71926174 5.7371137 3.1533912 0 5.7188249-2.5734415 5.7188249-5.7371137 0-3.1632341-2.5654337-5.73667559-5.7188249-5.73667559m0 12.35015279c-3.63520172 0-6.5928983-2.9669287-6.5928983-6.6134772 0-3.64611043 2.95769658-6.6130391 6.5928983-6.6130391 3.6347649 0 6.5924615 2.96692867 6.5924615 6.6130391 0 3.6465485-2.9576966 6.6134772-6.5924615 6.6134772m0 6.036611c-3.15382798 0-5.71926174 2.5734414-5.71926174 5.7366755 0 3.1636723 2.56543376 5.7371138 5.71926174 5.7371138 3.1533912 0 5.7188249-2.5734415 5.7188249-5.7371138 0-3.1632341-2.5654337-5.7366755-5.7188249-5.7366755m0 12.3501528c-3.63520172 0-6.5928983-2.9669287-6.5928983-6.6134773 0-3.6461104 2.95769658-6.613039 6.5928983-6.613039 3.6347649 0 6.5924615 2.9669286 6.5924615 6.613039 0 3.6465486-2.9576966 6.6134773-6.5924615 6.6134773m0 6.0365671c-3.15382798 0-5.71926174 2.5734415-5.71926174 5.7366756 0 3.1636722 2.56543376 5.7371137 5.71926174 5.7371137 3.1533912 0 5.7188249-2.5734415 5.7188249-5.7371137 0-3.1632341-2.5654337-5.7366756-5.7188249-5.7366756m0 12.3501528c-3.63520172 0-6.5928983-2.9669287-6.5928983-6.6134772 0-3.6461104 2.95769658-6.6130391 6.5928983-6.6130391 3.6347649 0 6.5924615 2.9669287 6.5924615 6.6130391 0 3.6465485-2.9576966 6.6134772-6.5924615 6.6134772m11.3896872-44.7433526h24.13421v-2.48361416h-24.13421zm0 4.0939322h36.0174145v-1.9074052h-36.0174145zm0 14.1142725h24.13421v-2.4836142h-24.13421zm0 4.0939322h36.0174145v-1.9078434h-36.0174145zm0 14.8872251h24.13421v-2.4836142h-24.13421zm0 4.093494h36.0174145v-1.9074052h-36.0174145z" fill="#fed420" transform=""/></svg>