<svg height="24" viewBox="0 0 24 24" width="24" xmlns="http://www.w3.org/2000/svg"><path d="m21.4543247 10.5895217c.3490811.3441064.5436862.809335.5456483 1.3014017.0026511.4918349-.1900493.963071-.5329589 1.3023129l-8.1578016 8.2604082c-.1531452.1569883-.3327032.279345-.513911.361567-.1264654.0614106-.2005817.0897985-.3083233.1240689-.1718317.0457472-.3384927.0654273-.5555685.0597746-.1764492-.0065293-.3492084-.0418199-.5660427-.1159584-.0492628-.0193465-.0965405-.0392927-.10401-.0449851-.2099197-.0885639-.3974632-.213597-.550519-.3684709l-10.13401683-10.063691c-.34387646-.3506876-.53509314-.8077359-.53705706-1.293583l-.03975735-8.22746369c-.00132412-.48466.19196967-.95739032.52228102-1.29030155.14572283-.15382354.31554749-.270602.58642038-.39844454.10522399-.05031868.17631611-.0757625.22106401-.08445792.1498101-.04494093.3018215-.06703348.49147777-.07431971l8.21103316-.03737919c.4922499 0 .952982.18832769 1.2978475.53607472zm-9.4802537 10.0442835c.0796498.0020586.1168051-.0023289.1114803.001337.0493471-.0191706.0145665-.0058491.0582041-.0233073.0369884-.0152328.031818-.0130186.0554079-.0243533.0647182-.0296798.1057245-.0576229.1392983-.0920209l8.1662947-8.2689618c.0857811-.0848796.133802-.2023115.133119-.3291519-.0005164-.1294758-.0491345-.2457036-.1401904-.3354684l-10.1280409-10.05726039c-.0914994-.0925853-.2039603-.13867711-.3342687-.13868415l-8.18337073.0368156c-.0521392.00212543-.09128866.00715194-.15143277.02258946l-.06873177.03012801c-.06425651.03215489-.10058916.05729862-.13281577.09106381-.08619056.08693433-.13724512.21179627-.13691497.33319116l.03975431 8.226566c.00051207.1266658.04920594.2430544.13978641.3355151l10.13208539 10.0617293c.0295063.0298487.0673152.0550554.1593791.0957354.0746398.0255877.1157009.0335646.1409565.0345373zm-10.33242263-19.18229391c-.00887996.00528314-.00887996.00528314.00983493-.00310146.0045061-.00178664.0049666-.00196923-.01283387.00455945.00099284-.00048413.00199246-.0009701.00299894-.00145799zm3.84707631 2.39452422c.55098581 0 1.0693206.21692086 1.45909204.60574127.38936331.39291326.6040437.91270476.6040437 1.46523903s-.21468039 1.06823293-.60445183 1.46114619c-.38977144.38882041-.9076981.60574127-1.45868391.60574127-.55057767 0-1.06891247-.21692086-1.45827577-.60574127-.80443928-.80629075-.80443928-2.12009447 0-2.92638522.3893633-.38882041.90728996-.60574127 1.45827577-.60574127z" fill="#ffdd00" fill-rule="evenodd" transform="translate(1 1)"/></svg>