<svg width="16" height="16" fill="currentColor" focusable="false" xmlns="http://www.w3.org/2000/svg"><path fill-rule="evenodd" clip-rule="evenodd" d="M16 8A8 8 0 1 0 0 8a8 8 0 0 0 16 0Zm-11.483.8c.09 2.045.515 3.863 1.149 5.161A6.407 6.407 0 0 1 1.65 8.8h2.867Zm1.602 0c.081 1.703.416 3.174.872 4.215.264.604.537.992.759 1.206.137.133.22.169.25.178.03-.01.113-.045.25-.178.222-.214.495-.602.76-1.206.455-1.041.79-2.512.871-4.215H6.12Zm3.762-1.6H6.12c.081-1.703.416-3.174.872-4.216.264-.603.537-.99.759-1.205.137-.133.22-.169.25-.178.03.01.113.045.25.178.222.215.495.602.76 1.205.455 1.042.79 2.513.871 4.216Zm1.602 1.6c-.089 2.045-.515 3.863-1.149 5.161A6.407 6.407 0 0 0 14.351 8.8h-2.868Zm2.868-1.6h-2.868c-.089-2.045-.515-3.863-1.149-5.16a6.407 6.407 0 0 1 4.017 5.16Zm-9.834 0H1.65a6.407 6.407 0 0 1 4.016-5.16c-.634 1.297-1.06 3.115-1.149 5.16Z"></path></svg>