<svg height="64" viewBox="0 0 64 64" width="64" xmlns="http://www.w3.org/2000/svg"><path d="m19.5828065 59.4366478h25.6795l6.2230218-34.6203261h-3.4434348c-.8819783 1.2312392-4.6910652 5.4589348-15.3908044 5.4589348-10.7602608 0-14.8360217-4.2699348-15.7615-5.4589348h-3.5058478zm26.2065435 1.2608696h-26.7342174c-.3051304 0-.5667609-.2187609-.6203478-.5194783l-6.4247609-35.8811956c-.0327826-.1834565.0170218-.372587.1368044-.5156957.120413-.1431087.2969347-.2256956.4835434-.2256956h4.5813696c.2168696 0 .4192391.1122174.5339783.2963043.0315217.0485435 3.4377608 5.1626305 14.9053695 5.1626305 11.5211957 0 14.471-5.0825653 14.4993696-5.1342609.1109565-.2004783.3221522-.3246739.5516304-.3246739h4.5372392c.1872391 0 .3637608.0825869.4835434.2256956s.1702174.3322392.1374348.5163261l-6.4499782 35.8811957c-.0542174.3000869-.3158479.5188478-.6209783.5188478zm-1.4998674-36.8508674c-.0598913 0-.1197826-.0088261-.1803043-.0264783-.3335-.0996087-.5238913-.4501304-.4242826-.7842608l4.1999565-14.11039133c.0989782-.3316087.4457174-.522.7779565-.42617392l4.3518913 1.24763044c.3335.09582608.5270435.44193481.4331087.77606521l-2.7266304 9.7477826c-.0939348.3347609-.4425653.5295652-.7773261.4368913-.3347609-.0933043-.5308261-.4413043-.4368913-.7766956l2.5583043-9.1444566-3.1496522-.903413-4.0221739 13.5127391c-.0813261.2736087-.3322391.4507609-.6039565.4507609zm-8.1798913 3.0933543c-.0201739 0-.0403478-.0006304-.0611522-.0025217-.3461087-.0340435-.6001739-.3416956-.5673913-.6884348l1.6536305-17.20393476c.033413-.34358695.3316087-.59891304.6796087-.56802174l4.5838913.37763044c.168326.01323913.3240434.09393478.4324782.22380435.1078044.12986956.1595.29693478.1431087.46526087l-1.4853043 15.26786954c-.0334131.3461087-.3416957.6026957-.6884348.5661305-.3467391-.0334131-.6001739-.3423261-.5661304-.6884348l1.4228913-14.6305-3.326174-.27423916-1.5937391 16.58547826c-.0315217.3259348-.3063913.569913-.6272826.569913zm-3.8297652 0c-.0201739 0-.0409783-.0006304-.0624131-.0031521-.3461087-.0340435-.5995434-.3423261-.5655-.6890652l2.0564783-20.98528265-3.2719565-.31458696-2.0848478 20.96006521c-.034674.3461087-.3404348.5995435-.6896957.5648696-.3467391-.0346739-.5995435-.343587-.5648696-.6896957l2.1466305-21.5854565c.0346739-.34484783.3360217-.59386957.6878043-.56486957l4.5258913.435c.1664348.01639131.3202609.0977174.4261739.22758696.1065435.1286087.1569783.29504348.1412174.46147826l-2.1182608 21.61445655c-.0315218.3253043-.3057609.5686521-.6266522.5686521zm-8.125737-1.5591282c-.3126956 0-.5837826-.232-.6241304-.5503696l-2.3786304-18.60413041c-.0435-.34106522.1935434-.65376087.5333478-.70419566l4.7295217-.696c.3391739-.05106521.6556522.18030435.7130218.5182174l.4936304 2.90126087c.058.34295652-.1727391.6688913-.5163261.7268913-.3454782.05926087-.6682609-.17273913-.7268913-.51569565l-.3896087-2.29352174-3.5077391.51632609 2.2998261 17.9907174c.0441304.3454782-.1998479.6613261-.5453261.7054565-.0271087.0037826-.0542174.0050435-.0806957.0050435zm-3.3165913-.890237c-.2824348 0-.5390217-.1910217-.6108913-.4772391l-2.7341956-10.8970652-3.1591087.7741739 1.7601739 7.1680435c.0832174.337913-.1235652.6789782-.4614783.7621956-.3398043.0819565-.6802391-.1235652-.7628261-.4621087l-1.9114782-7.7801956c-.0397174-.1620218-.0132392-.3341305.0737608-.4766087.0863696-.1431087.2263261-.2465.3889783-.2862174l4.3808913-1.073c.3347609-.082587.677087.1223043.7615652.4589565l2.8867609 11.5054348c.0844783.3372826-.120413.6796087-.4583261.7647174-.0510652.0126087-.1027609.018913-.1538261.018913z" fill="#fed420" transform=""/></svg>