<?xml version="1.0" encoding="UTF-8"?>
<svg width="17px" height="29px" viewBox="0 0 17 29" version="1.1" xmlns="http://www.w3.org/2000/svg" xmlns:xlink="http://www.w3.org/1999/xlink">
    <!-- Generator: Sketch 52.4 (67378) - http://www.bohemiancoding.com/sketch -->
    <title>Arrows / Arrow Left</title>
    <desc>Created with Sketch.</desc>
    <defs>
        <path d="M0.775169738,15.857625 C0.275848691,15.360625 0,14.704375 0,14.000875 C0,13.299125 0.275848691,12.639375 0.775169738,12.145875 L12.7326867,0.511875 C13.4240543,-0.170625 14.5414161,-0.170625 15.2327837,0.511875 C15.9224054,1.196125 15.9224054,2.303875 15.2327837,2.986375 L3.8985451,14.000875 L15.2327837,25.015375 C15.9224054,25.697875 15.9224054,26.805625 15.2327837,27.489875 C14.5414161,28.174125 13.4240543,28.174125 12.7326867,27.489875 L0.775169738,15.857625 L0.775169738,15.857625 L0.775169738,15.857625 Z" id="path-1"></path>
    </defs>
    <g id="Trends-Pages" stroke="none" stroke-width="1" fill="none" fill-rule="evenodd">
        <g id="Widescreen-/-Trends-Whitepaper-Article" transform="translate(-1428.000000, -709.000000)">
            <g id="side-nav-left-copy" transform="translate(1420.000000, 663.000000)">
                <g id="Arrows/Arrow-Left" transform="translate(22.322914, 60.319800) rotate(0.000000) translate(-22.322914, -60.319800) translate(8.322914, 46.319800)">
                    <mask id="mask-2" fill="white">
                        <use xlink:href="#path-1"></use>
                    </mask>
                    <use id="Arrow-Left-Icon" fill="#888888" fill-rule="evenodd" xlink:href="#path-1"></use>
                    <g id="solid-/-black" mask="url(#mask-2)" fill="#000A12" fill-rule="evenodd">
                        <rect id="Container" x="0" y="0" width="18" height="28"></rect>
                    </g>
                </g>
            </g>
        </g>
    </g>
</svg>