<svg xmlns="http://www.w3.org/2000/svg" width="61.475" height="63.404" viewBox="0 0 61.475 63.404">
  <path id="fryer" d="M12.26,30.081a9.686,9.686,0,0,1,9.557-7.947H42.571a9.705,9.705,0,0,1,9.57,8.031l6.45,29.821a15.659,15.659,0,0,0,4.132-13.363L55.907,5.732A5.641,5.641,0,0,0,50.323,1H14.064A5.641,5.641,0,0,0,8.481,5.73L1.665,46.624A15.652,15.652,0,0,0,5.8,59.985ZM27.967,9.454h8.454a2.113,2.113,0,1,1,0,4.227H27.967a2.113,2.113,0,1,1,0-4.227Zm2.642,25.362h3.17V53.837h-3.17ZM48,30.975a5.512,5.512,0,0,0-5.425-4.614H21.817a5.5,5.5,0,0,0-5.41,4.535l-7,32.4a7.41,7.41,0,0,0,3.87,1.105H51.105a7.41,7.41,0,0,0,3.87-1.105ZM38.006,55.95a2.113,2.113,0,0,1-2.113,2.113H28.5a2.113,2.113,0,0,1-2.113-2.113V32.7A2.113,2.113,0,0,1,28.5,30.589h7.4A2.113,2.113,0,0,1,38.006,32.7Z" transform="translate(-1.456 -1)" fill="#1e1e1b"/>
</svg>
