<svg xmlns="http://www.w3.org/2000/svg" xmlns:xlink="http://www.w3.org/1999/xlink" height="100%" width="100%" x="100%" y="100%" preserveAspectRatio="none" viewBox="0 0 730.133 485.544">
  <defs>
    <clipPath id="clip-path">
      <path id="Path_201" data-name="Path 201" d="M89.915,125.459c-35.7,7.51-69.484,11.516-75.176,80.789A2397.872,2397.872,0,0,0,8,465.554C10.763,566.7,37.27,577.823,127.6,577.815s349.48-10.621,463.011-13.555,105.555-30.014,127.525-76.019,4.84-204.917,0-279.712S712.4,114.208,651.041,108.1s-238.285-2.322-326.354,0S125.615,117.949,89.915,125.459Z" transform="matrix(-1, -0.017, 0.017, -1, 931.125, 1889.451)" fill="#fd7422"/>
    </clipPath>
  </defs>
  <path id="Path_4" data-name="Path 4" d="M89.915,125.459c-35.7,7.51-69.484,11.516-75.176,80.789A2397.872,2397.872,0,0,0,8,465.554C10.763,566.7,37.27,577.823,127.6,577.815s349.48-10.621,463.011-13.555,105.555-30.014,127.525-76.019,4.84-204.917,0-279.712S712.4,114.208,651.041,108.1s-238.285-2.322-326.354,0S125.615,117.949,89.915,125.459Z" transform="matrix(-1, -0.017, 0.017, -1, 727.125, 590.451)" fill="#fd7422"/>
  <g id="Mask_Group_107" data-name="Mask Group 107" transform="translate(-204 -1299)" clip-path="url(#clip-path)">
    <rect id="_5" data-name="5" width="781" height="508" transform="translate(179 1276.544)" fill="url(#pattern)" style="mix-blend-mode: multiply;isolation: isolate"/>
  </g>
</svg>
