<svg xmlns="http://www.w3.org/2000/svg" width="74.918" height="70.235" viewBox="0 0 74.918 70.235">
  <g id="Сгруппировать_835" data-name="Сгруппировать 835" transform="translate(-87.557 -145.379)">
    <path id="Контур_190" data-name="Контур 190" d="M0,144v37.459a4.687,4.687,0,0,0,4.682,4.682H9.365v7.024a2.342,2.342,0,0,0,2.341,2.341h9.365a2.342,2.342,0,0,0,2.341-2.341v-7.024H51.506v7.024a2.342,2.342,0,0,0,2.341,2.341h9.365a2.342,2.342,0,0,0,2.341-2.341v-7.024h4.682a4.684,4.684,0,0,0,4.682-4.682V144Zm60.871,30.435a2.342,2.342,0,0,1-2.341,2.341H16.388a2.342,2.342,0,0,1-2.341-2.341V155.706a2.342,2.342,0,0,1,2.341-2.341H58.53a2.342,2.342,0,0,1,2.341,2.341Z" transform="translate(87.557 20.108)"/>
    <path id="Контур_191" data-name="Контур 191" d="M70.236,16H4.682A4.69,4.69,0,0,0,0,20.682v9.365H74.918V20.682A4.687,4.687,0,0,0,70.236,16ZM16.388,25.365a2.341,2.341,0,1,1,2.341-2.341A2.342,2.342,0,0,1,16.388,25.365Zm9.365,0a2.341,2.341,0,1,1,2.341-2.341A2.342,2.342,0,0,1,25.753,25.365Zm9.365,0a2.341,2.341,0,1,1,2.341-2.341A2.342,2.342,0,0,1,35.118,25.365Z" transform="translate(87.557 129.379)"/>
  </g>
</svg>
