<svg xmlns="http://www.w3.org/2000/svg" width="56.572" height="56.572" viewBox="0 0 56.572 56.572">
  <g id="Layer_2" data-name="Layer 2" transform="translate(-1 -1)">
    <path id="Контур_197" data-name="Контур 197" d="M25.3,5.5A19.8,19.8,0,1,0,45.1,25.3,19.8,19.8,0,0,0,25.3,5.5Zm9.014,26.627a1.884,1.884,0,0,1-1.471.717,1.815,1.815,0,0,1-1.169-.415l-7.543-5.657a1.887,1.887,0,0,1-.716-1.471V12.1a1.886,1.886,0,1,1,3.771,0V24.4l6.827,5.091a1.851,1.851,0,0,1,.3,2.64Z" transform="translate(3.986 3.986)" fill="#fd7422"/>
    <path id="Контур_198" data-name="Контур 198" d="M29.286,1A28.286,28.286,0,1,0,57.572,29.286,28.286,28.286,0,0,0,29.286,1Zm0,51.983a23.7,23.7,0,1,1,23.7-23.7,23.7,23.7,0,0,1-23.7,23.7Z" transform="translate(0 0)" fill="#fd7422"/>
  </g>
</svg>
