<svg xmlns="http://www.w3.org/2000/svg" width="71.898" height="50.41" viewBox="0 0 71.898 50.41">
  <g id="Сгруппировать_836" data-name="Сгруппировать 836" transform="translate(-90.576 -244.121)">
    <path id="Контур_51" data-name="Контур 51" d="M64.881,0H7.017A7.018,7.018,0,0,0,0,7.018V43.393A7.017,7.017,0,0,0,7.017,50.41H64.881A7.018,7.018,0,0,0,71.9,43.393V7.018A7.018,7.018,0,0,0,64.881,0M50.324,43.1H7V7.271H50.324ZM61.271,28.84a3.656,3.656,0,1,1,3.656-3.656,3.656,3.656,0,0,1-3.656,3.656m0-14.268a3.656,3.656,0,1,1,3.656-3.656,3.656,3.656,0,0,1-3.656,3.656" transform="translate(90.576 244.121)" fill="#1a1818"/>
    <rect id="Прямоугольник_227" data-name="Прямоугольник 227" width="28.768" height="6.961" transform="translate(104.837 258.693)" fill="#1a1818"/>
  </g>
</svg>
