<svg xmlns="http://www.w3.org/2000/svg" width="46.808" height="52.292" viewBox="0 0 46.808 52.292">
  <g id="user" transform="translate(-24.165)">
    <g id="Сгруппировать_310" data-name="Сгруппировать 310" transform="translate(24.165)">
      <g id="Сгруппировать_309" data-name="Сгруппировать 309" transform="translate(0)">
        <path id="Контур_199" data-name="Контур 199" d="M124.369,27.154a13.577,13.577,0,1,0-13.577-13.577A13.613,13.613,0,0,0,124.369,27.154Z" transform="translate(-100.961 0)" fill="#fd7422"/>
        <path id="Контур_200" data-name="Контур 200" d="M70.873,257.719a12.656,12.656,0,0,0-1.364-2.49,16.876,16.876,0,0,0-11.68-7.352,2.5,2.5,0,0,0-1.719.415,14.472,14.472,0,0,1-17.075,0,2.225,2.225,0,0,0-1.719-.415,16.754,16.754,0,0,0-11.68,7.352,14.594,14.594,0,0,0-1.364,2.49,1.261,1.261,0,0,0,.059,1.127,23.645,23.645,0,0,0,1.6,2.372,22.531,22.531,0,0,0,2.727,3.083,35.538,35.538,0,0,0,2.727,2.372,27.037,27.037,0,0,0,32.253,0,26.071,26.071,0,0,0,2.727-2.372,27.377,27.377,0,0,0,2.727-3.083,20.782,20.782,0,0,0,1.6-2.372A1.012,1.012,0,0,0,70.873,257.719Z" transform="translate(-24.165 -219.715)" fill="#fd7422"/>
      </g>
    </g>
  </g>
</svg>
