<svg xmlns="http://www.w3.org/2000/svg" width="54.495" height="54.496" viewBox="0 0 54.495 54.496">
  <g id="whisk" transform="translate(-0.499)">
    <path id="Контур_192" data-name="Контур 192" d="M394.777,4.877,399.654,0l7.652,7.652-4.877,4.877Zm0,0" transform="translate(-352.312)" fill="#fd7422"/>
    <path id="Контур_193" data-name="Контур 193" d="M285.539,76.4l9.37-9.37,7.652,7.652-9.37,9.37Zm0,0" transform="translate(-254.701 -59.893)" fill="#fd7422"/>
    <path id="Контур_194" data-name="Контур 194" d="M99.213,228.875l-13.227,18.7a26.865,26.865,0,0,1-7.035,6.83,23.313,23.313,0,0,1-5.673,2.757,15,15,0,0,0,17.8-2.532,25.063,25.063,0,0,0,2.141-2.7l.039-.057.034-.059c.055-.1.546-.955.779-1.457l7.591-19.038Zm0,0" transform="translate(-65.032 -204.514)" fill="#fd7422"/>
    <path id="Контур_195" data-name="Контур 195" d="M54.551,256.137,65.6,240.516,49.977,251.563c-4.726,3.342-8.148,8.468-8.962,13.407l.063.065.065.063C46.083,264.285,51.209,260.863,54.551,256.137Zm0,0" transform="translate(-36.204 -214.915)" fill="#fd7422"/>
    <path id="Контур_196" data-name="Контур 196" d="M5.1,195.282a26.865,26.865,0,0,1,6.83-7.035l18.7-13.227-2.445-2.445L9.232,180.131l-.081.035c-.5.233-1.36.724-1.456.779l-.039.023a14.979,14.979,0,0,0-5.312,19.987A23.3,23.3,0,0,1,5.1,195.282Zm0,0" transform="translate(0 -154.206)" fill="#fd7422"/>
  </g>
</svg>
